<svg xmlns="http://www.w3.org/2000/svg" xmlns:xlink="http://www.w3.org/1999/xlink" width="1024" zoomAndPan="magnify" viewBox="0 0 768 767.999994" height="1024" preserveAspectRatio="xMidYMid meet" version="1.0"><defs><clipPath id="id1"><path d="M 76.800781 76.800781 L 691.050781 76.800781 L 691.050781 691.050781 L 76.800781 691.050781 Z M 76.800781 76.800781 " clip-rule="nonzero"/></clipPath></defs><g clip-path="url(#id1)"><path fill="#0077b5" d="M 168.9375 76.800781 L 598.914062 76.800781 C 600.421875 76.800781 601.925781 76.835938 603.433594 76.910156 C 604.941406 76.984375 606.441406 77.097656 607.945312 77.242188 C 609.445312 77.390625 610.941406 77.574219 612.433594 77.796875 C 613.921875 78.019531 615.410156 78.277344 616.886719 78.570312 C 618.367188 78.863281 619.835938 79.195312 621.300781 79.5625 C 622.761719 79.925781 624.214844 80.328125 625.660156 80.765625 C 627.101562 81.207031 628.53125 81.679688 629.953125 82.1875 C 631.371094 82.695312 632.777344 83.238281 634.171875 83.8125 C 635.566406 84.390625 636.941406 85 638.304688 85.644531 C 639.667969 86.289062 641.015625 86.96875 642.347656 87.679688 C 643.675781 88.390625 644.988281 89.132812 646.28125 89.910156 C 647.574219 90.683594 648.847656 91.492188 650.101562 92.328125 C 651.355469 93.164062 652.585938 94.035156 653.796875 94.933594 C 655.011719 95.832031 656.199219 96.757812 657.363281 97.714844 C 658.53125 98.671875 659.671875 99.65625 660.789062 100.667969 C 661.90625 101.679688 662.996094 102.71875 664.0625 103.785156 C 665.128906 104.851562 666.167969 105.945312 667.183594 107.0625 C 668.195312 108.179688 669.179688 109.320312 670.136719 110.484375 C 671.09375 111.652344 672.019531 112.839844 672.917969 114.050781 C 673.816406 115.261719 674.683594 116.496094 675.523438 117.75 C 676.359375 119.003906 677.167969 120.277344 677.941406 121.570312 C 678.714844 122.863281 679.460938 124.175781 680.171875 125.503906 C 680.882812 126.835938 681.558594 128.179688 682.203125 129.542969 C 682.847656 130.90625 683.460938 132.285156 684.035156 133.679688 C 684.613281 135.070312 685.15625 136.476562 685.664062 137.898438 C 686.171875 139.316406 686.644531 140.75 687.082031 142.191406 C 687.519531 143.632812 687.921875 145.085938 688.289062 146.550781 C 688.65625 148.011719 688.984375 149.484375 689.28125 150.960938 C 689.574219 152.441406 689.832031 153.925781 690.050781 155.417969 C 690.273438 156.910156 690.457031 158.40625 690.605469 159.90625 C 690.753906 161.40625 690.863281 162.910156 690.9375 164.417969 C 691.011719 165.921875 691.050781 167.429688 691.050781 168.9375 L 691.050781 598.914062 C 691.050781 600.421875 691.011719 601.925781 690.9375 603.433594 C 690.863281 604.941406 690.753906 606.441406 690.605469 607.945312 C 690.457031 609.445312 690.273438 610.941406 690.050781 612.433594 C 689.832031 613.921875 689.574219 615.410156 689.28125 616.886719 C 688.984375 618.367188 688.65625 619.835938 688.289062 621.300781 C 687.921875 622.761719 687.519531 624.214844 687.082031 625.660156 C 686.644531 627.101562 686.171875 628.53125 685.664062 629.953125 C 685.15625 631.371094 684.613281 632.777344 684.035156 634.171875 C 683.460938 635.566406 682.847656 636.941406 682.203125 638.304688 C 681.558594 639.667969 680.882812 641.015625 680.171875 642.347656 C 679.460938 643.675781 678.714844 644.988281 677.941406 646.28125 C 677.167969 647.574219 676.359375 648.847656 675.523438 650.101562 C 674.683594 651.355469 673.816406 652.585938 672.917969 653.796875 C 672.019531 655.011719 671.09375 656.199219 670.136719 657.363281 C 669.179688 658.53125 668.195312 659.671875 667.183594 660.789062 C 666.167969 661.90625 665.128906 662.996094 664.0625 664.0625 C 662.996094 665.128906 661.90625 666.167969 660.789062 667.183594 C 659.671875 668.195312 658.53125 669.179688 657.363281 670.136719 C 656.199219 671.09375 655.011719 672.019531 653.796875 672.917969 C 652.585938 673.816406 651.355469 674.683594 650.101562 675.523438 C 648.847656 676.359375 647.574219 677.167969 646.28125 677.941406 C 644.988281 678.714844 643.675781 679.460938 642.347656 680.171875 C 641.015625 680.882812 639.667969 681.558594 638.304688 682.203125 C 636.941406 682.847656 635.566406 683.460938 634.171875 684.035156 C 632.777344 684.613281 631.371094 685.15625 629.953125 685.664062 C 628.53125 686.171875 627.101562 686.644531 625.660156 687.082031 C 624.214844 687.519531 622.761719 687.921875 621.300781 688.289062 C 619.835938 688.65625 618.367188 688.984375 616.886719 689.28125 C 615.410156 689.574219 613.921875 689.832031 612.433594 690.050781 C 610.941406 690.273438 609.445312 690.457031 607.945312 690.605469 C 606.441406 690.753906 604.941406 690.863281 603.433594 690.9375 C 601.925781 691.011719 600.421875 691.050781 598.914062 691.050781 L 168.9375 691.050781 C 167.429688 691.050781 165.921875 691.011719 164.417969 690.9375 C 162.910156 690.863281 161.40625 690.753906 159.90625 690.605469 C 158.40625 690.457031 156.910156 690.273438 155.417969 690.050781 C 153.925781 689.832031 152.441406 689.574219 150.960938 689.28125 C 149.484375 688.984375 148.011719 688.65625 146.550781 688.289062 C 145.085938 687.921875 143.632812 687.519531 142.191406 687.082031 C 140.75 686.644531 139.316406 686.171875 137.898438 685.664062 C 136.476562 685.15625 135.070312 684.613281 133.679688 684.035156 C 132.285156 683.460938 130.90625 682.847656 129.542969 682.203125 C 128.179688 681.558594 126.835938 680.882812 125.503906 680.171875 C 124.175781 679.460938 122.863281 678.714844 121.570312 677.941406 C 120.277344 677.167969 119.003906 676.359375 117.75 675.523438 C 116.496094 674.683594 115.261719 673.816406 114.050781 672.917969 C 112.839844 672.019531 111.652344 671.09375 110.484375 670.136719 C 109.320312 669.179688 108.179688 668.195312 107.0625 667.183594 C 105.945312 666.167969 104.851562 665.128906 103.785156 664.0625 C 102.71875 662.996094 101.679688 661.90625 100.667969 660.789062 C 99.65625 659.671875 98.671875 658.53125 97.714844 657.363281 C 96.757812 656.199219 95.832031 655.011719 94.933594 653.796875 C 94.035156 652.585938 93.164062 651.355469 92.328125 650.101562 C 91.488281 648.847656 90.683594 647.574219 89.910156 646.28125 C 89.132812 644.988281 88.390625 643.675781 87.679688 642.347656 C 86.96875 641.015625 86.289062 639.667969 85.644531 638.304688 C 85 636.941406 84.390625 635.566406 83.8125 634.171875 C 83.238281 632.777344 82.695312 631.371094 82.1875 629.953125 C 81.679688 628.53125 81.207031 627.101562 80.765625 625.660156 C 80.328125 624.214844 79.925781 622.761719 79.5625 621.300781 C 79.195312 619.835938 78.863281 618.367188 78.570312 616.886719 C 78.277344 615.410156 78.019531 613.921875 77.796875 612.433594 C 77.574219 610.941406 77.390625 609.445312 77.242188 607.945312 C 77.097656 606.441406 76.984375 604.941406 76.910156 603.433594 C 76.835938 601.925781 76.800781 600.421875 76.800781 598.914062 L 76.800781 168.9375 C 76.800781 167.429688 76.835938 165.921875 76.910156 164.417969 C 76.984375 162.910156 77.097656 161.40625 77.242188 159.90625 C 77.390625 158.40625 77.574219 156.910156 77.796875 155.417969 C 78.019531 153.925781 78.277344 152.441406 78.570312 150.960938 C 78.863281 149.484375 79.195312 148.011719 79.5625 146.550781 C 79.925781 145.085938 80.328125 143.632812 80.765625 142.191406 C 81.207031 140.75 81.679688 139.316406 82.1875 137.898438 C 82.695312 136.476562 83.238281 135.070312 83.8125 133.679688 C 84.390625 132.285156 85 130.90625 85.644531 129.542969 C 86.289062 128.179688 86.96875 126.835938 87.679688 125.503906 C 88.390625 124.175781 89.132812 122.863281 89.910156 121.570312 C 90.683594 120.277344 91.488281 119.003906 92.328125 117.75 C 93.164062 116.496094 94.035156 115.261719 94.933594 114.050781 C 95.832031 112.839844 96.757812 111.652344 97.714844 110.484375 C 98.671875 109.320312 99.65625 108.179688 100.667969 107.0625 C 101.679688 105.945312 102.71875 104.851562 103.785156 103.785156 C 104.851562 102.71875 105.945312 101.679688 107.0625 100.667969 C 108.179688 99.65625 109.320312 98.671875 110.484375 97.714844 C 111.652344 96.757812 112.839844 95.832031 114.050781 94.933594 C 115.261719 94.035156 116.496094 93.164062 117.75 92.328125 C 119.003906 91.492188 120.277344 90.683594 121.570312 89.910156 C 122.863281 89.132812 124.175781 88.390625 125.503906 87.679688 C 126.835938 86.96875 128.179688 86.289062 129.542969 85.644531 C 130.90625 85 132.285156 84.390625 133.679688 83.8125 C 135.070312 83.238281 136.476562 82.695312 137.898438 82.1875 C 139.316406 81.679688 140.75 81.207031 142.191406 80.765625 C 143.632812 80.328125 145.085938 79.925781 146.550781 79.5625 C 148.011719 79.195312 149.484375 78.863281 150.960938 78.570312 C 152.441406 78.277344 153.925781 78.019531 155.417969 77.796875 C 156.910156 77.574219 158.40625 77.390625 159.90625 77.242188 C 161.40625 77.097656 162.910156 76.984375 164.417969 76.910156 C 165.921875 76.835938 167.429688 76.800781 168.9375 76.800781 Z M 168.9375 76.800781 " fill-opacity="1" fill-rule="nonzero"/></g><path fill="#ffffff" d="M 291.546875 242.359375 C 291.546875 243.8125 291.476562 245.265625 291.332031 246.710938 C 291.191406 248.15625 290.976562 249.59375 290.695312 251.019531 C 290.410156 252.445312 290.058594 253.855469 289.636719 255.246094 C 289.214844 256.636719 288.726562 258.003906 288.167969 259.347656 C 287.613281 260.691406 286.992188 262.003906 286.304688 263.285156 C 285.621094 264.566406 284.875 265.8125 284.066406 267.019531 C 283.257812 268.230469 282.394531 269.394531 281.472656 270.519531 C 280.550781 271.644531 279.574219 272.71875 278.546875 273.746094 C 277.519531 274.777344 276.441406 275.75 275.320312 276.671875 C 274.195312 277.59375 273.027344 278.460938 271.820312 279.269531 C 270.609375 280.074219 269.367188 280.820312 268.082031 281.507812 C 266.800781 282.191406 265.488281 282.8125 264.144531 283.371094 C 262.800781 283.925781 261.433594 284.414062 260.042969 284.835938 C 258.652344 285.257812 257.242188 285.613281 255.816406 285.894531 C 254.390625 286.179688 252.957031 286.390625 251.507812 286.535156 C 250.0625 286.675781 248.613281 286.75 247.160156 286.75 C 245.703125 286.75 244.253906 286.675781 242.808594 286.535156 C 241.359375 286.390625 239.925781 286.179688 238.5 285.894531 C 237.074219 285.613281 235.664062 285.257812 234.273438 284.835938 C 232.882812 284.414062 231.515625 283.925781 230.171875 283.371094 C 228.828125 282.8125 227.515625 282.191406 226.234375 281.507812 C 224.953125 280.820312 223.707031 280.074219 222.496094 279.269531 C 221.289062 278.460938 220.121094 277.59375 219 276.671875 C 217.875 275.75 216.796875 274.777344 215.769531 273.746094 C 214.742188 272.71875 213.765625 271.644531 212.84375 270.519531 C 211.921875 269.394531 211.058594 268.230469 210.25 267.019531 C 209.441406 265.8125 208.695312 264.566406 208.011719 263.285156 C 207.324219 262.003906 206.703125 260.691406 206.148438 259.347656 C 205.589844 258.003906 205.101562 256.636719 204.679688 255.246094 C 204.257812 253.855469 203.90625 252.445312 203.621094 251.019531 C 203.339844 249.59375 203.125 248.15625 202.984375 246.710938 C 202.839844 245.265625 202.769531 243.8125 202.769531 242.359375 C 202.769531 240.90625 202.839844 239.457031 202.984375 238.007812 C 203.125 236.5625 203.339844 235.125 203.621094 233.699219 C 203.90625 232.273438 204.257812 230.867188 204.679688 229.472656 C 205.101562 228.082031 205.589844 226.714844 206.148438 225.371094 C 206.703125 224.03125 207.324219 222.71875 208.011719 221.433594 C 208.695312 220.152344 209.441406 218.90625 210.25 217.699219 C 211.058594 216.488281 211.921875 215.324219 212.84375 214.199219 C 213.765625 213.074219 214.742188 212 215.769531 210.972656 C 216.796875 209.945312 217.875 208.96875 219 208.046875 C 220.121094 207.125 221.289062 206.257812 222.496094 205.453125 C 223.707031 204.644531 224.953125 203.898438 226.234375 203.210938 C 227.515625 202.527344 228.828125 201.90625 230.171875 201.347656 C 231.515625 200.792969 232.882812 200.304688 234.273438 199.882812 C 235.664062 199.460938 237.074219 199.105469 238.5 198.824219 C 239.925781 198.539062 241.359375 198.328125 242.808594 198.183594 C 244.253906 198.042969 245.703125 197.96875 247.160156 197.96875 C 248.613281 197.96875 250.0625 198.042969 251.507812 198.183594 C 252.957031 198.328125 254.390625 198.539062 255.816406 198.824219 C 257.242188 199.105469 258.652344 199.460938 260.042969 199.882812 C 261.433594 200.304688 262.800781 200.792969 264.144531 201.347656 C 265.488281 201.90625 266.800781 202.527344 268.082031 203.210938 C 269.367188 203.898438 270.609375 204.644531 271.820312 205.453125 C 273.027344 206.257812 274.195312 207.125 275.320312 208.046875 C 276.441406 208.96875 277.519531 209.945312 278.546875 210.972656 C 279.574219 212 280.550781 213.074219 281.472656 214.199219 C 282.394531 215.324219 283.257812 216.488281 284.066406 217.699219 C 284.875 218.90625 285.621094 220.152344 286.304688 221.433594 C 286.992188 222.71875 287.613281 224.03125 288.167969 225.371094 C 288.726562 226.714844 289.214844 228.082031 289.636719 229.472656 C 290.058594 230.867188 290.410156 232.273438 290.695312 233.699219 C 290.976562 235.125 291.191406 236.5625 291.332031 238.007812 C 291.476562 239.457031 291.546875 240.90625 291.546875 242.359375 Z M 291.546875 242.359375 " fill-opacity="1" fill-rule="nonzero"/><path stroke-linecap="butt" transform="matrix(1.199707, 0, 0, 1.199707, 76.799999, 76.800016)" fill-opacity="1" fill="#ffffff" fill-rule="nonzero" stroke-linejoin="miter" d="M 243.999036 193.999833 L 243.999036 392.000657 M 142.001473 193.999833 L 142.001473 392.000657 " stroke="#ffffff" stroke-width="66" stroke-opacity="1" stroke-miterlimit="4"/><path fill="#ffffff" d="M 407.917969 415.117188 C 407.917969 391.125 423.515625 367.128906 451.109375 367.128906 C 479.902344 367.128906 490.699219 388.722656 490.699219 421.117188 L 490.699219 547.085938 L 569.878906 547.085938 L 569.878906 411.519531 C 569.878906 338.335938 531.488281 304.746094 478.703125 304.746094 C 437.910156 304.746094 417.515625 327.539062 407.917969 343.136719 " fill-opacity="1" fill-rule="nonzero"/></svg>