<svg xmlns="http://www.w3.org/2000/svg" xmlns:xlink="http://www.w3.org/1999/xlink" width="434" zoomAndPan="magnify" viewBox="0 0 325.5 46.499999" height="62" preserveAspectRatio="xMidYMid meet" version="1.0"><defs><g/></defs><g fill="#000000" fill-opacity="1"><g transform="translate(6.091646, 33.362314)"><g><path d="M 2.5 0 L 0.3125 -20.421875 L 4.296875 -20.421875 L 5.453125 -7.53125 L 6.59375 -20.421875 L 10.390625 -20.421875 L 11.484375 -7.53125 L 12.578125 -20.421875 L 16.625 -20.421875 L 14.390625 0 L 9.484375 0 L 8.46875 -9.84375 L 7.484375 0 Z M 2.5 0 "/></g></g></g><g fill="#000000" fill-opacity="1"><g transform="translate(27.352028, 33.362314)"><g><path d="M 0.90625 0 L 0.90625 -20.421875 L 9.078125 -20.421875 L 9.078125 -16.484375 L 5.0625 -16.484375 L 5.0625 -12.515625 L 8.921875 -12.515625 L 8.921875 -8.65625 L 5.0625 -8.65625 L 5.0625 -3.96875 L 9.34375 -3.96875 L 9.34375 0 Z M 0.90625 0 "/></g></g></g><g fill="#000000" fill-opacity="1"><g transform="translate(41.478048, 33.362314)"><g><path d="M 0.90625 0 L 0.90625 -20.421875 L 5.109375 -20.421875 L 6.984375 -10.65625 L 6.984375 -20.421875 L 10.9375 -20.421875 L 10.9375 0 L 6.9375 0 L 4.90625 -10.21875 L 4.90625 0 Z M 0.90625 0 "/></g></g></g><g fill="#000000" fill-opacity="1"><g transform="translate(57.649259, 33.362314)"><g><path d="M 0.90625 -20.421875 L 6.546875 -20.421875 C 8.003906 -20.421875 9.097656 -20.015625 9.828125 -19.203125 C 10.554688 -18.398438 10.925781 -17.207031 10.9375 -15.625 L 10.984375 -6.0625 C 11.003906 -4.050781 10.65625 -2.535156 9.9375 -1.515625 C 9.226562 -0.503906 8.046875 0 6.390625 0 L 0.90625 0 Z M 5.734375 -3.609375 C 6.472656 -3.609375 6.84375 -3.972656 6.84375 -4.703125 L 6.84375 -15.25 C 6.84375 -15.707031 6.804688 -16.050781 6.734375 -16.28125 C 6.671875 -16.507812 6.539062 -16.660156 6.34375 -16.734375 C 6.15625 -16.816406 5.863281 -16.859375 5.46875 -16.859375 L 5.015625 -16.859375 L 5.015625 -3.609375 Z M 5.734375 -3.609375 "/></g></g></g><g fill="#000000" fill-opacity="1"><g transform="translate(73.701559, 33.362314)"><g><path d="M 3.375 0 L 3.375 -6.734375 L 0.125 -20.421875 L 4.15625 -20.421875 L 5.296875 -13.5 L 6.4375 -20.421875 L 10.484375 -20.421875 L 7.234375 -6.734375 L 7.234375 0 Z M 3.375 0 "/></g></g></g><g fill="#000000" fill-opacity="1"><g transform="translate(88.636146, 33.362314)"><g/></g></g><g fill="#000000" fill-opacity="1"><g transform="translate(98.52912, 33.362314)"><g><path d="M 6.6875 0.03125 C 6.082031 0.132812 5.738281 0.1875 5.65625 0.1875 C 4.007812 0.1875 2.757812 -0.28125 1.90625 -1.21875 C 1.050781 -2.164062 0.625 -3.550781 0.625 -5.375 L 0.625 -15.25 C 0.625 -17.007812 1.050781 -18.34375 1.90625 -19.25 C 2.769531 -20.164062 4.019531 -20.625 5.65625 -20.625 C 7.289062 -20.625 8.539062 -20.164062 9.40625 -19.25 C 10.269531 -18.34375 10.703125 -17.007812 10.703125 -15.25 L 10.703125 -5.375 C 10.703125 -3.695312 10.320312 -2.363281 9.5625 -1.375 L 11.3125 -0.265625 L 9.9375 2.171875 Z M 5.65625 -3.5625 C 6.050781 -3.5625 6.304688 -3.75 6.421875 -4.125 C 6.535156 -4.507812 6.59375 -5.003906 6.59375 -5.609375 L 6.59375 -15.171875 C 6.59375 -15.691406 6.523438 -16.101562 6.390625 -16.40625 C 6.253906 -16.707031 6.003906 -16.859375 5.640625 -16.859375 C 4.984375 -16.859375 4.65625 -16.304688 4.65625 -15.203125 L 4.65625 -5.546875 C 4.65625 -4.972656 4.71875 -4.5 4.84375 -4.125 C 4.976562 -3.75 5.25 -3.5625 5.65625 -3.5625 Z M 5.65625 -3.5625 "/></g></g></g><path stroke-linecap="round" transform="matrix(0.000000000000000045, -0.740163, 0.743161, 0.000000000000000046, 92.16436, 33.262094)" fill="none" stroke-linejoin="miter" d="M 0.501875 -0.000399925 L 26.620498 -0.000399925 " stroke="#000000" stroke-width="1" stroke-opacity="1" stroke-miterlimit="4"/></svg>